<svg id="cat_ropa" xmlns="http://www.w3.org/2000/svg" width="200" height="200" viewBox="0 0 200 200">
  <rect id="Rectángulo_15" data-name="Rectángulo 15" width="200" height="200" fill="#e8eff1"/>
  <path id="iconmonstr-clothing-5" d="M66.937,138.491H34.513l.11-57.712L17.409,131.11,0,126.949l22.972-92.34,23.082-9.967c-5.124-5.448-7.819-13.487,0-18.71,0,0,8.263-5.875,23.191-5.927S92.218,5.758,92.218,5.758c7.652,4.865,5.17,14.243,0,18.872L115.3,34.609l23.191,92.34-17.311,4.213L103.868,80.779l-.11,57.712h-32.2V14.432c8.465-.289,15-2.112,15-4.317,0-2.407-7.756-4.357-17.311-4.357S51.934,7.709,51.934,10.116c0,2.2,6.538,4.028,15,4.317V138.491Zm20.456-40.52-3.722,2.707,13.589,18.664,3.722-2.707Zm-36.3,0,3.722,2.707L41.23,119.342l-3.722-2.707L51.1,97.971Z" transform="translate(30.588 30.683)" fill-rule="evenodd"/>
</svg>
