<svg id="cat_compras" xmlns="http://www.w3.org/2000/svg" width="200" height="200" viewBox="0 0 200 200">
  <rect id="Rectángulo_15" data-name="Rectángulo 15" width="200" height="200" fill="#e8eff1"/>
  <path id="iconmonstr-shopping-bag-7" d="M23.04,151.933,3,138.346V47.43l20.04,8.7ZM36.4,56.823v96.839l86.841-12.511V44.818ZM76.234,6.4c-14.008,0-26.44,12.837-26.467,27.313l-.007,10.775A3.3,3.3,0,0,0,53.6,47.654a3.248,3.248,0,0,0,2.839-3.163V33.729c.02-10.948,9.459-20.924,19.793-20.924a13.062,13.062,0,0,1,9.245,3.611,15.039,15.039,0,0,1,4.362,11.057V38.659a3.3,3.3,0,0,0,3.841,3.163,3.233,3.233,0,0,0,2.826-3.15l.013-11.2C96.535,15.283,87.7,6.4,76.234,6.4ZM33.548,44.786A3.255,3.255,0,0,0,36.4,41.617V27.326C36.414,16.378,45.86,6.4,56.194,6.4l1.082.1a33.634,33.634,0,0,1,7.936-4.373A20.363,20.363,0,0,0,56.194,0c-14,0-26.44,12.837-26.467,27.313v14.31a3.293,3.293,0,0,0,3.821,3.163Z" transform="translate(36.278 23.05)"/>
</svg>
