<svg xmlns="http://www.w3.org/2000/svg" xmlns:xlink="http://www.w3.org/1999/xlink" width="223" height="223" viewBox="0 0 223 223">
  <defs>
    <style>
      .cls-1 {
        fill: none;
      }

      .cls-2 {
        clip-path: url(#clip-path);
      }
    </style>
    <clipPath id="clip-path">
      <rect class="cls-1" width="223" height="223"/>
    </clipPath>
  </defs>
  <g id="Repetir_cuadrícula_1" data-name="Repetir cuadrícula 1" class="cls-2">
    <g transform="translate(-55 -349)">
      <circle id="Elipse_1" data-name="Elipse 1" cx="5" cy="5" r="5" transform="translate(55 349)"/>
    </g>
    <g transform="translate(-25 -349)">
      <circle id="Elipse_1-2" data-name="Elipse 1" cx="5" cy="5" r="5" transform="translate(55 349)"/>
    </g>
    <g transform="translate(5 -349)">
      <circle id="Elipse_1-3" data-name="Elipse 1" cx="5" cy="5" r="5" transform="translate(55 349)"/>
    </g>
    <g transform="translate(35 -349)">
      <circle id="Elipse_1-4" data-name="Elipse 1" cx="5" cy="5" r="5" transform="translate(55 349)"/>
    </g>
    <g transform="translate(65 -349)">
      <circle id="Elipse_1-5" data-name="Elipse 1" cx="5" cy="5" r="5" transform="translate(55 349)"/>
    </g>
    <g transform="translate(95 -349)">
      <circle id="Elipse_1-6" data-name="Elipse 1" cx="5" cy="5" r="5" transform="translate(55 349)"/>
    </g>
    <g transform="translate(125 -349)">
      <circle id="Elipse_1-7" data-name="Elipse 1" cx="5" cy="5" r="5" transform="translate(55 349)"/>
    </g>
    <g transform="translate(155 -349)">
      <circle id="Elipse_1-8" data-name="Elipse 1" cx="5" cy="5" r="5" transform="translate(55 349)"/>
    </g>
    <g transform="translate(-55 -319)">
      <circle id="Elipse_1-9" data-name="Elipse 1" cx="5" cy="5" r="5" transform="translate(55 349)"/>
    </g>
    <g transform="translate(-25 -319)">
      <circle id="Elipse_1-10" data-name="Elipse 1" cx="5" cy="5" r="5" transform="translate(55 349)"/>
    </g>
    <g transform="translate(5 -319)">
      <circle id="Elipse_1-11" data-name="Elipse 1" cx="5" cy="5" r="5" transform="translate(55 349)"/>
    </g>
    <g transform="translate(35 -319)">
      <circle id="Elipse_1-12" data-name="Elipse 1" cx="5" cy="5" r="5" transform="translate(55 349)"/>
    </g>
    <g transform="translate(65 -319)">
      <circle id="Elipse_1-13" data-name="Elipse 1" cx="5" cy="5" r="5" transform="translate(55 349)"/>
    </g>
    <g transform="translate(95 -319)">
      <circle id="Elipse_1-14" data-name="Elipse 1" cx="5" cy="5" r="5" transform="translate(55 349)"/>
    </g>
    <g transform="translate(125 -319)">
      <circle id="Elipse_1-15" data-name="Elipse 1" cx="5" cy="5" r="5" transform="translate(55 349)"/>
    </g>
    <g transform="translate(155 -319)">
      <circle id="Elipse_1-16" data-name="Elipse 1" cx="5" cy="5" r="5" transform="translate(55 349)"/>
    </g>
    <g transform="translate(-55 -289)">
      <circle id="Elipse_1-17" data-name="Elipse 1" cx="5" cy="5" r="5" transform="translate(55 349)"/>
    </g>
    <g transform="translate(-25 -289)">
      <circle id="Elipse_1-18" data-name="Elipse 1" cx="5" cy="5" r="5" transform="translate(55 349)"/>
    </g>
    <g transform="translate(5 -289)">
      <circle id="Elipse_1-19" data-name="Elipse 1" cx="5" cy="5" r="5" transform="translate(55 349)"/>
    </g>
    <g transform="translate(35 -289)">
      <circle id="Elipse_1-20" data-name="Elipse 1" cx="5" cy="5" r="5" transform="translate(55 349)"/>
    </g>
    <g transform="translate(65 -289)">
      <circle id="Elipse_1-21" data-name="Elipse 1" cx="5" cy="5" r="5" transform="translate(55 349)"/>
    </g>
    <g transform="translate(95 -289)">
      <circle id="Elipse_1-22" data-name="Elipse 1" cx="5" cy="5" r="5" transform="translate(55 349)"/>
    </g>
    <g transform="translate(125 -289)">
      <circle id="Elipse_1-23" data-name="Elipse 1" cx="5" cy="5" r="5" transform="translate(55 349)"/>
    </g>
    <g transform="translate(155 -289)">
      <circle id="Elipse_1-24" data-name="Elipse 1" cx="5" cy="5" r="5" transform="translate(55 349)"/>
    </g>
    <g transform="translate(-55 -259)">
      <circle id="Elipse_1-25" data-name="Elipse 1" cx="5" cy="5" r="5" transform="translate(55 349)"/>
    </g>
    <g transform="translate(-25 -259)">
      <circle id="Elipse_1-26" data-name="Elipse 1" cx="5" cy="5" r="5" transform="translate(55 349)"/>
    </g>
    <g transform="translate(5 -259)">
      <circle id="Elipse_1-27" data-name="Elipse 1" cx="5" cy="5" r="5" transform="translate(55 349)"/>
    </g>
    <g transform="translate(35 -259)">
      <circle id="Elipse_1-28" data-name="Elipse 1" cx="5" cy="5" r="5" transform="translate(55 349)"/>
    </g>
    <g transform="translate(65 -259)">
      <circle id="Elipse_1-29" data-name="Elipse 1" cx="5" cy="5" r="5" transform="translate(55 349)"/>
    </g>
    <g transform="translate(95 -259)">
      <circle id="Elipse_1-30" data-name="Elipse 1" cx="5" cy="5" r="5" transform="translate(55 349)"/>
    </g>
    <g transform="translate(125 -259)">
      <circle id="Elipse_1-31" data-name="Elipse 1" cx="5" cy="5" r="5" transform="translate(55 349)"/>
    </g>
    <g transform="translate(155 -259)">
      <circle id="Elipse_1-32" data-name="Elipse 1" cx="5" cy="5" r="5" transform="translate(55 349)"/>
    </g>
    <g transform="translate(-55 -229)">
      <circle id="Elipse_1-33" data-name="Elipse 1" cx="5" cy="5" r="5" transform="translate(55 349)"/>
    </g>
    <g transform="translate(-25 -229)">
      <circle id="Elipse_1-34" data-name="Elipse 1" cx="5" cy="5" r="5" transform="translate(55 349)"/>
    </g>
    <g transform="translate(5 -229)">
      <circle id="Elipse_1-35" data-name="Elipse 1" cx="5" cy="5" r="5" transform="translate(55 349)"/>
    </g>
    <g transform="translate(35 -229)">
      <circle id="Elipse_1-36" data-name="Elipse 1" cx="5" cy="5" r="5" transform="translate(55 349)"/>
    </g>
    <g transform="translate(65 -229)">
      <circle id="Elipse_1-37" data-name="Elipse 1" cx="5" cy="5" r="5" transform="translate(55 349)"/>
    </g>
    <g transform="translate(95 -229)">
      <circle id="Elipse_1-38" data-name="Elipse 1" cx="5" cy="5" r="5" transform="translate(55 349)"/>
    </g>
    <g transform="translate(125 -229)">
      <circle id="Elipse_1-39" data-name="Elipse 1" cx="5" cy="5" r="5" transform="translate(55 349)"/>
    </g>
    <g transform="translate(155 -229)">
      <circle id="Elipse_1-40" data-name="Elipse 1" cx="5" cy="5" r="5" transform="translate(55 349)"/>
    </g>
    <g transform="translate(-55 -199)">
      <circle id="Elipse_1-41" data-name="Elipse 1" cx="5" cy="5" r="5" transform="translate(55 349)"/>
    </g>
    <g transform="translate(-25 -199)">
      <circle id="Elipse_1-42" data-name="Elipse 1" cx="5" cy="5" r="5" transform="translate(55 349)"/>
    </g>
    <g transform="translate(5 -199)">
      <circle id="Elipse_1-43" data-name="Elipse 1" cx="5" cy="5" r="5" transform="translate(55 349)"/>
    </g>
    <g transform="translate(35 -199)">
      <circle id="Elipse_1-44" data-name="Elipse 1" cx="5" cy="5" r="5" transform="translate(55 349)"/>
    </g>
    <g transform="translate(65 -199)">
      <circle id="Elipse_1-45" data-name="Elipse 1" cx="5" cy="5" r="5" transform="translate(55 349)"/>
    </g>
    <g transform="translate(95 -199)">
      <circle id="Elipse_1-46" data-name="Elipse 1" cx="5" cy="5" r="5" transform="translate(55 349)"/>
    </g>
    <g transform="translate(125 -199)">
      <circle id="Elipse_1-47" data-name="Elipse 1" cx="5" cy="5" r="5" transform="translate(55 349)"/>
    </g>
    <g transform="translate(155 -199)">
      <circle id="Elipse_1-48" data-name="Elipse 1" cx="5" cy="5" r="5" transform="translate(55 349)"/>
    </g>
    <g transform="translate(-55 -169)">
      <circle id="Elipse_1-49" data-name="Elipse 1" cx="5" cy="5" r="5" transform="translate(55 349)"/>
    </g>
    <g transform="translate(-25 -169)">
      <circle id="Elipse_1-50" data-name="Elipse 1" cx="5" cy="5" r="5" transform="translate(55 349)"/>
    </g>
    <g transform="translate(5 -169)">
      <circle id="Elipse_1-51" data-name="Elipse 1" cx="5" cy="5" r="5" transform="translate(55 349)"/>
    </g>
    <g transform="translate(35 -169)">
      <circle id="Elipse_1-52" data-name="Elipse 1" cx="5" cy="5" r="5" transform="translate(55 349)"/>
    </g>
    <g transform="translate(65 -169)">
      <circle id="Elipse_1-53" data-name="Elipse 1" cx="5" cy="5" r="5" transform="translate(55 349)"/>
    </g>
    <g transform="translate(95 -169)">
      <circle id="Elipse_1-54" data-name="Elipse 1" cx="5" cy="5" r="5" transform="translate(55 349)"/>
    </g>
    <g transform="translate(125 -169)">
      <circle id="Elipse_1-55" data-name="Elipse 1" cx="5" cy="5" r="5" transform="translate(55 349)"/>
    </g>
    <g transform="translate(155 -169)">
      <circle id="Elipse_1-56" data-name="Elipse 1" cx="5" cy="5" r="5" transform="translate(55 349)"/>
    </g>
    <g transform="translate(-55 -139)">
      <circle id="Elipse_1-57" data-name="Elipse 1" cx="5" cy="5" r="5" transform="translate(55 349)"/>
    </g>
    <g transform="translate(-25 -139)">
      <circle id="Elipse_1-58" data-name="Elipse 1" cx="5" cy="5" r="5" transform="translate(55 349)"/>
    </g>
    <g transform="translate(5 -139)">
      <circle id="Elipse_1-59" data-name="Elipse 1" cx="5" cy="5" r="5" transform="translate(55 349)"/>
    </g>
    <g transform="translate(35 -139)">
      <circle id="Elipse_1-60" data-name="Elipse 1" cx="5" cy="5" r="5" transform="translate(55 349)"/>
    </g>
    <g transform="translate(65 -139)">
      <circle id="Elipse_1-61" data-name="Elipse 1" cx="5" cy="5" r="5" transform="translate(55 349)"/>
    </g>
    <g transform="translate(95 -139)">
      <circle id="Elipse_1-62" data-name="Elipse 1" cx="5" cy="5" r="5" transform="translate(55 349)"/>
    </g>
    <g transform="translate(125 -139)">
      <circle id="Elipse_1-63" data-name="Elipse 1" cx="5" cy="5" r="5" transform="translate(55 349)"/>
    </g>
    <g transform="translate(155 -139)">
      <circle id="Elipse_1-64" data-name="Elipse 1" cx="5" cy="5" r="5" transform="translate(55 349)"/>
    </g>
  </g>
</svg>
